<?xml version="1.0" encoding="UTF-8" standalone="no"?>
<!-- Created with Inkscape (http://www.inkscape.org/) -->

<svg
   xmlns:dc="http://purl.org/dc/elements/1.1/"
   xmlns:cc="http://creativecommons.org/ns#"
   xmlns:rdf="http://www.w3.org/1999/02/22-rdf-syntax-ns#"
   xmlns:svg="http://www.w3.org/2000/svg"
   xmlns="http://www.w3.org/2000/svg"
   xmlns:sodipodi="http://sodipodi.sourceforge.net/DTD/sodipodi-0.dtd"
   xmlns:inkscape="http://www.inkscape.org/namespaces/inkscape"
   width="210mm"
   height="297mm"
   viewBox="0 0 210 297"
   version="1.1"
   id="svg8"
   inkscape:version="0.92.4 (unknown)"
   sodipodi:docname="anubis_logo.svg">
  <defs
     id="defs2" />
  <sodipodi:namedview
     id="base"
     pagecolor="#ffffff"
     bordercolor="#666666"
     borderopacity="1.0"
     inkscape:pageopacity="0.0"
     inkscape:pageshadow="2"
     inkscape:zoom="32"
     inkscape:cx="28.190557"
     inkscape:cy="1074.7314"
     inkscape:document-units="mm"
     inkscape:current-layer="layer2"
     showgrid="false"
     inkscape:window-width="2880"
     inkscape:window-height="1491"
     inkscape:window-x="0"
     inkscape:window-y="55"
     inkscape:window-maximized="1" />
  <metadata
     id="metadata5">
    <rdf:RDF>
      <cc:Work
         rdf:about="">
        <dc:format>image/svg+xml</dc:format>
        <dc:type
           rdf:resource="http://purl.org/dc/dcmitype/StillImage" />
        <dc:title></dc:title>
      </cc:Work>
    </rdf:RDF>
  </metadata>
  <g
     inkscape:label="Layer 1"
     inkscape:groupmode="layer"
     id="layer1"
     style="display:none;opacity:0.23462417">
    <path
       style="fill:none;fill-opacity:1;stroke:#000000;stroke-width:1;stroke-linejoin:round;stroke-miterlimit:4;stroke-dasharray:none;stroke-dashoffset:0;stroke-opacity:1"
       d="m 96.751567,97.884201 c 3.304823,5.701379 -1.271931,15.095929 1.870888,21.381559 1.412695,2.8254 -0.775584,7.85572 0,10.95805 1.852515,7.41007 0.267269,22.50595 0.267269,30.736 0,5.54134 0.988896,32.17924 2.405426,35.01231 0.70214,1.40427 -1.06842,5.61331 0,6.68174 1.07358,1.07357 1.06908,9.15292 1.06908,10.69078"
       id="path817"
       inkscape:connector-curvature="0" />
    <path
       style="fill:none;fill-opacity:1;stroke:#000000;stroke-width:1;stroke-linejoin:round;stroke-miterlimit:4;stroke-dasharray:none;stroke-dashoffset:0;stroke-opacity:1"
       d="m 38.754081,148.66541 c 23.117522,4.11303 48.625416,7.75082 74.835469,7.75082 2.51093,0 12.30411,0.78238 13.09621,-0.80181 0.28462,-0.56926 4.12415,0.34335 4.81085,0 4.43347,-2.21674 14.17288,0.62109 19.2434,-1.06908"
       id="path819"
       inkscape:connector-curvature="0" />
    <path
       style="fill:none;fill-opacity:1;stroke:#000000;stroke-width:1;stroke-linejoin:round;stroke-miterlimit:4;stroke-dasharray:none;stroke-dashoffset:0;stroke-opacity:1"
       d="m 38.754081,154.0108 c 12.555908,56.4631 18.525506,38.29432 63.610149,59.33384 9.53472,-2.78268 20.40406,-9.44602 26.72695,-15.7689 2.62815,-2.62815 8.3299,-2.18271 10.95805,-4.81086 5.3548,-5.3548 4.27623,-16.03608 9.35444,-21.11429 2.57466,-2.57466 7.3786,-16.17567 1.33634,-17.10525"
       id="path831"
       inkscape:connector-curvature="0" />
    <path
       style="fill:none;fill-opacity:1;stroke:#000000;stroke-width:1;stroke-linejoin:round;stroke-miterlimit:4;stroke-dasharray:none;stroke-dashoffset:0;stroke-opacity:1"
       d="M 38.754081,92.538811 C 36.995597,54.128063 46.303784,23.784386 66.015573,4.0725976 c 4.244282,13.2567094 0.506999,48.0534344 5.61266,58.2647574 3.797202,7.594402 -0.846199,21.760734 1.336348,29.399648"
       id="path833"
       inkscape:connector-curvature="0" />
    <path
       style="fill:none;fill-opacity:1;stroke:#000000;stroke-width:1;stroke-linejoin:round;stroke-miterlimit:4;stroke-dasharray:none;stroke-dashoffset:0;stroke-opacity:1"
       d="M 151.54182,95.211505 C 150.74065,63.272148 141.323,9.7876023 120.80582,-0.47098423 123.23971,28.675155 132.3135,63.568081 127.75483,95.478776"
       id="path835"
       inkscape:connector-curvature="0" />
    <path
       style="fill:none;fill-opacity:1;stroke:#000000;stroke-width:1;stroke-linejoin:round;stroke-miterlimit:4;stroke-dasharray:none;stroke-dashoffset:0;stroke-opacity:1"
       d="m 72.964579,91.737002 c -0.623628,-1.692707 -1.327666,-3.357923 -1.870885,-5.078122 -0.783831,-2.48213 9.7282,-2.511922 10.95805,-3.741772 6.57262,-6.57262 39.389466,-1.42208 46.237626,0.534538"
       id="path837"
       inkscape:connector-curvature="0" />
    <path
       style="fill:none;fill-opacity:1;stroke:#000000;stroke-width:1;stroke-linejoin:round;stroke-miterlimit:4;stroke-dasharray:none;stroke-dashoffset:0;stroke-opacity:1"
       d="m 38.754081,92.538811 c -0.08695,4.995394 -3.181479,1.819375 -3.741774,2.939965 -3.400079,6.800164 -8.018084,61.479914 -8.018084,75.102734 11.522518,-16.82153 21.497749,-34.97741 30.468725,-52.91936 2.646682,9.23943 1.65362,21.20179 5.87993,28.59784"
       id="path839"
       inkscape:connector-curvature="0" />
    <path
       style="fill:none;fill-opacity:1;stroke:#000000;stroke-width:1;stroke-linejoin:round;stroke-miterlimit:4;stroke-dasharray:none;stroke-dashoffset:0;stroke-opacity:1"
       d="m 63.342876,146.25999 c 7.72477,-8.43531 5.454267,-20.79751 9.888974,-29.66692 0.756043,7.27571 2.245754,14.38392 3.207235,21.11429 2.443308,-6.38431 3.555158,-11.61357 6.681738,-16.30344 3.388464,5.70754 4.86314,16.13492 5.87993,23.25245"
       id="path841"
       inkscape:connector-curvature="0" />
    <path
       style="fill:none;fill-opacity:1;stroke:#000000;stroke-width:1;stroke-linejoin:round;stroke-miterlimit:4;stroke-dasharray:none;stroke-dashoffset:0;stroke-opacity:1"
       d="m 95.147952,121.40392 c 0.325538,7.98465 2.939962,15.99033 2.939962,24.32152"
       id="path843"
       inkscape:connector-curvature="0" />
    <path
       style="fill:none;fill-opacity:1;stroke:#000000;stroke-width:1;stroke-linejoin:round;stroke-miterlimit:4;stroke-dasharray:none;stroke-dashoffset:0;stroke-opacity:1"
       d="m 106.106,119.26576 c 3.82691,8.70202 4.91543,20.24274 6.41447,30.736"
       id="path845"
       inkscape:connector-curvature="0" />
    <path
       style="fill:none;fill-opacity:1;stroke:#000000;stroke-width:1;stroke-linejoin:round;stroke-miterlimit:4;stroke-dasharray:none;stroke-dashoffset:0;stroke-opacity:1"
       d="m 125.34941,122.473 c 1.82037,6.37857 5.45935,11.48852 6.41446,18.17433"
       id="path847"
       inkscape:connector-curvature="0" />
    <path
       style="fill:none;fill-opacity:1;stroke:#000000;stroke-width:1;stroke-linejoin:round;stroke-miterlimit:4;stroke-dasharray:none;stroke-dashoffset:0;stroke-opacity:1"
       d="m 136.842,128.08566 c 3.05105,5.37551 5.82345,30.49697 13.89801,26.45968"
       id="path849"
       inkscape:connector-curvature="0" />
    <path
       style="fill:none;fill-opacity:1;stroke:#000000;stroke-width:1;stroke-linejoin:round;stroke-miterlimit:4;stroke-dasharray:none;stroke-dashoffset:0;stroke-opacity:1"
       d="m 158.22356,152.13992 c -2.77996,-10.31198 -6.99068,-20.33695 -8.55263,-31.27054 9.05456,7.28061 14.15512,19.49033 18.70887,28.59784"
       id="path851"
       inkscape:connector-curvature="0" />
    <path
       style="fill:none;fill-opacity:1;stroke:#000000;stroke-width:1;stroke-linejoin:round;stroke-miterlimit:4;stroke-dasharray:none;stroke-dashoffset:0;stroke-opacity:1"
       d="m 98.355186,173.78875 c -0.140708,2.98424 -0.911402,5.32806 -1.603619,7.75081"
       id="path853"
       inkscape:connector-curvature="0" />
    <path
       style="fill:none;fill-opacity:1;stroke:#000000;stroke-width:1;stroke-linejoin:round;stroke-miterlimit:4;stroke-dasharray:none;stroke-dashoffset:0;stroke-opacity:1"
       d="m 94.613411,189.29038 c 3.155326,2.0719 7.311659,3.06543 11.492589,1.87089"
       id="path859"
       inkscape:connector-curvature="0" />
    <path
       style="fill:none;fill-opacity:1;stroke:#000000;stroke-width:1;stroke-linejoin:round;stroke-miterlimit:4;stroke-dasharray:none;stroke-dashoffset:0;stroke-opacity:1"
       d="m 59.066564,166.57247 c -2.336683,-6.82664 -6.428218,-10.87255 -8.285355,-17.37252 2.086592,-11.01331 42.801749,-12.48441 47.306705,-3.47451"
       id="path861"
       inkscape:connector-curvature="0" />
    <path
       style="fill:none;fill-opacity:1;stroke:#000000;stroke-width:1;stroke-linejoin:round;stroke-miterlimit:4;stroke-dasharray:none;stroke-dashoffset:0;stroke-opacity:1"
       d="m 63.877417,139.04371 c 0.03296,7.42583 6.549503,39.68812 15.501633,30.73599 2.494515,-2.49451 8.730803,-1.24725 11.225318,-3.74177 1.659517,-1.65952 2.425904,-4.29679 4.009043,-5.87993 5.292543,-5.29254 -5.391859,-17.97909 3.474501,-14.43256"
       id="path863"
       inkscape:connector-curvature="0" />
  </g>
  <g
     inkscape:groupmode="layer"
     id="layer2"
     inkscape:label="SilkS">
    <path
       style="fill:#000000;fill-opacity:1;stroke:#000000;stroke-width:0.25097549;stroke-linejoin:round;stroke-miterlimit:4;stroke-dasharray:none;stroke-dashoffset:0;stroke-opacity:1"
       d="M 41.519531 11.609375 L 43.195312 31.933594 C 38.275816 31.495687 33.658596 30.661728 28.916016 32.169922 L 27.767578 12.75 C 24.611573 18.327304 20.612116 22.801965 20.546875 34.818359 C 20.546875 34.818359 20.174993 34.970886 19.107422 36.617188 C 19.751865 36.985392 20.803873 37.765917 22.644531 38.390625 C 25.46985 39.349518 29.681001 40.269266 35.212891 40.097656 C 40.754748 39.925726 44.908616 39.066456 47.673828 38.251953 C 49.056421 37.844713 50.091888 37.447622 50.779297 37.154297 C 51.118963 37.00936 51.371375 36.890319 51.541016 36.806641 C 50.610027 34.34569 49.808594 33.949219 49.808594 33.949219 C 49.693726 25.128928 46.454082 17.930569 41.519531 11.609375 z M 44.402344 16.542969 C 46.415411 22.082654 48.268894 25.403738 48.955078 33.476562 L 46.962891 32.291016 L 44.402344 16.542969 z M 25.619141 18.060547 L 24.101562 33.048828 L 22.298828 34.044922 C 22.713055 21.817024 23.967916 24.32837 25.619141 18.060547 z "
       transform="scale(0.26458333)"
       id="path965" />
    <path
       style="fill:#000000;fill-opacity:1;stroke:#000000;stroke-width:0.06640393;stroke-linejoin:round;stroke-miterlimit:4;stroke-dasharray:none;stroke-dashoffset:0;stroke-opacity:1"
       d="m 4.9345631,10.083251 c -0.05045,0.08856 -0.1013528,0.189707 -0.1516043,0.306298 -0.3593162,0.833662 -0.1825224,4.037436 -0.1825224,4.037436 0.7807909,-0.234125 1.0405212,-0.118894 1.5629532,0.140212 l 0.2375639,-2.840645 c 1.722137,0.337811 3.6896725,0.306939 5.6993395,-0.07042 l 0.36158,2.734474 c 0.148355,-0.280522 0.792522,-0.04432 1.453591,0.211176 0,0 0.116042,-3.382471 -0.172126,-4.312644 -0.01996,-0.06442 -0.03985,-0.124672 -0.0596,-0.1817 -0.04669,0.02278 -0.109961,0.05246 -0.194807,0.08867 -0.186594,0.07963 -0.465431,0.186252 -0.836541,0.295562 -0.74222,0.21862 -1.853216,0.448038 -3.3314889,0.493898 C 7.8399909,11.031511 6.7089163,10.78526 5.94741,10.526809 5.452093,10.358703 5.112336,10.184705 4.9345631,10.083251 Z"
       id="path866"
       inkscape:connector-curvature="0"
       sodipodi:nodetypes="cccccccccccsscc" />
    <path
       style="fill:none;fill-opacity:1;stroke:#000000;stroke-width:0.13280785;stroke-linejoin:round;stroke-miterlimit:4;stroke-dasharray:none;stroke-dashoffset:0;stroke-opacity:1"
       d="m 5.5958557,13.970734 c 0.3498067,2.065257 2.1626289,2.991144 3.6415233,2.903991 1.478894,-0.08715 2.634444,-0.288926 3.612118,-2.903991 0.301189,-0.56473 -0.05592,-0.276983 -0.05592,-0.276983"
       id="path868"
       inkscape:connector-curvature="0"
       sodipodi:nodetypes="czcc" />
    <path
       style="fill:#000000;fill-opacity:1;stroke:#000000;stroke-width:0.10025816;stroke-linejoin:round;stroke-miterlimit:4;stroke-dasharray:none;stroke-dashoffset:0;stroke-opacity:1"
       d="M 7.2046998,12.298651 8.726291,12.298507"
       id="path870"
       inkscape:connector-curvature="0" />
    <path
       style="fill:#000000;fill-opacity:1;stroke:#000000;stroke-width:0.0529949;stroke-linejoin:round;stroke-miterlimit:4;stroke-dasharray:none;stroke-dashoffset:0;stroke-opacity:1"
       d="m 7.7019074,12.308826 v 1.198201 c 0,0 0.1034489,0.4719 0.2793296,0.46084 0.1758806,-0.01106 0.2619764,-0.483447 0.2619764,-0.483447 l 0.035498,-1.192549 z"
       id="path872"
       inkscape:connector-curvature="0"
       sodipodi:nodetypes="cczccc" />
    <path
       style="fill:none;fill-opacity:1;stroke:#000000;stroke-width:0.13280785;stroke-linejoin:round;stroke-miterlimit:4;stroke-dasharray:none;stroke-dashoffset:0;stroke-opacity:1"
       d="m 8.8200154,15.423995 0.496937,0.283964 0.4614413,-0.346081"
       id="path880"
       inkscape:connector-curvature="0" />
    <path
       inkscape:connector-curvature="0"
       id="path952"
       d="m 9.8422649,12.290383 1.5215911,-1.44e-4"
       style="fill:#000000;fill-opacity:1;stroke:#000000;stroke-width:0.10025816;stroke-linejoin:round;stroke-miterlimit:4;stroke-dasharray:none;stroke-dashoffset:0;stroke-opacity:1" />
    <path
       sodipodi:nodetypes="cczccc"
       inkscape:connector-curvature="0"
       id="path954"
       d="m 10.339472,12.300558 v 1.198201 c 0,0 0.103449,0.4719 0.27933,0.46084 0.175881,-0.01106 0.261976,-0.483447 0.261976,-0.483447 l 0.0355,-1.192549 z"
       style="fill:#000000;fill-opacity:1;stroke:#000000;stroke-width:0.0529949;stroke-linejoin:round;stroke-miterlimit:4;stroke-dasharray:none;stroke-dashoffset:0;stroke-opacity:1" />
  </g>
</svg>
